<mxfile host="app.diagrams.net" modified="2023-06-14T13:50:01.019Z" agent="Mozilla/5.0 (Windows NT 10.0; Win64; x64; rv:109.0) Gecko/20100101 Firefox/113.0" etag="KC7DOZD6ToL3Uxo-f4Mr" version="21.3.7" type="device">
  <diagram name="Page-1" id="xpKMkWCW641ysIGpV8C2">
    <mxGraphModel dx="2345" dy="978" grid="1" gridSize="10" guides="1" tooltips="1" connect="1" arrows="1" fold="1" page="1" pageScale="1" pageWidth="850" pageHeight="1100" math="0" shadow="0">
      <root>
        <mxCell id="0" />
        <mxCell id="1" parent="0" />
        <mxCell id="2Emxo1YxTL0GBM5rEkE9-28" value="" style="group" parent="1" vertex="1" connectable="0">
          <mxGeometry x="240" y="20" width="1570" height="220" as="geometry" />
        </mxCell>
        <mxCell id="2Emxo1YxTL0GBM5rEkE9-1" value="&lt;font style=&quot;font-size: 18px;&quot;&gt;Artificer&lt;/font&gt;" style="text;html=1;strokeColor=none;fillColor=none;align=center;verticalAlign=middle;whiteSpace=wrap;rounded=0;" parent="2Emxo1YxTL0GBM5rEkE9-28" vertex="1">
          <mxGeometry x="305" width="60" height="30" as="geometry" />
        </mxCell>
        <mxCell id="2Emxo1YxTL0GBM5rEkE9-2" value="&lt;div&gt;&lt;font style=&quot;font-size: 18px;&quot;&gt;Ability(&quot;Arcana&quot;&lt;/font&gt;&lt;font style=&quot;font-size: 18px;&quot;&gt;, &lt;br&gt;&lt;/font&gt;&lt;/div&gt;&lt;div&gt;&lt;font style=&quot;font-size: 18px;&quot;&gt;&quot;Artificer&quot;)&lt;/font&gt;&lt;/div&gt;" style="text;html=1;align=center;verticalAlign=middle;resizable=0;points=[];autosize=1;strokeColor=none;fillColor=none;" parent="2Emxo1YxTL0GBM5rEkE9-28" vertex="1">
          <mxGeometry x="120" y="83" width="150" height="60" as="geometry" />
        </mxCell>
        <mxCell id="2Emxo1YxTL0GBM5rEkE9-3" value="&lt;div&gt;&lt;font style=&quot;font-size: 18px;&quot;&gt;Ability(&quot;Intelligence&quot;&lt;/font&gt;&lt;font style=&quot;font-size: 18px;&quot;&gt;, &lt;br&gt;&lt;/font&gt;&lt;/div&gt;&lt;div&gt;&lt;font style=&quot;font-size: 18px;&quot;&gt;&quot;&lt;/font&gt;&lt;font style=&quot;font-size: 18px;&quot;&gt;Arcana&lt;/font&gt;&lt;font style=&quot;font-size: 18px;&quot;&gt;&quot;)&lt;/font&gt;&lt;/div&gt;" style="text;html=1;align=center;verticalAlign=middle;resizable=0;points=[];autosize=1;strokeColor=none;fillColor=none;" parent="2Emxo1YxTL0GBM5rEkE9-28" vertex="1">
          <mxGeometry x="40" y="160" width="190" height="60" as="geometry" />
        </mxCell>
        <mxCell id="2Emxo1YxTL0GBM5rEkE9-4" value="&lt;div&gt;&lt;font style=&quot;font-size: 18px;&quot;&gt;Ability(&quot;Sleigh of Hand&quot;&lt;/font&gt;&lt;font style=&quot;font-size: 18px;&quot;&gt;, &lt;br&gt;&lt;/font&gt;&lt;/div&gt;&lt;div&gt;&lt;font style=&quot;font-size: 18px;&quot;&gt;&quot;Artificer&quot;)&lt;/font&gt;&lt;/div&gt;" style="text;html=1;align=center;verticalAlign=middle;resizable=0;points=[];autosize=1;strokeColor=none;fillColor=none;" parent="2Emxo1YxTL0GBM5rEkE9-28" vertex="1">
          <mxGeometry x="400" y="83" width="210" height="60" as="geometry" />
        </mxCell>
        <mxCell id="2Emxo1YxTL0GBM5rEkE9-5" value="" style="endArrow=none;html=1;rounded=0;entryX=0;entryY=1;entryDx=0;entryDy=0;" parent="2Emxo1YxTL0GBM5rEkE9-28" source="2Emxo1YxTL0GBM5rEkE9-2" target="2Emxo1YxTL0GBM5rEkE9-1" edge="1">
          <mxGeometry width="50" height="50" relative="1" as="geometry">
            <mxPoint x="240" y="83" as="sourcePoint" />
            <mxPoint x="290" y="33" as="targetPoint" />
          </mxGeometry>
        </mxCell>
        <mxCell id="2Emxo1YxTL0GBM5rEkE9-6" value="" style="endArrow=none;html=1;rounded=0;entryX=1;entryY=1;entryDx=0;entryDy=0;" parent="2Emxo1YxTL0GBM5rEkE9-28" source="2Emxo1YxTL0GBM5rEkE9-4" target="2Emxo1YxTL0GBM5rEkE9-1" edge="1">
          <mxGeometry width="50" height="50" relative="1" as="geometry">
            <mxPoint x="390.9200000000001" y="78.01999999999998" as="sourcePoint" />
            <mxPoint x="356" y="40" as="targetPoint" />
          </mxGeometry>
        </mxCell>
        <mxCell id="2Emxo1YxTL0GBM5rEkE9-7" value="&lt;div&gt;&lt;font style=&quot;font-size: 18px;&quot;&gt;Ability(&quot;Dexterity&quot;&lt;/font&gt;&lt;font style=&quot;font-size: 18px;&quot;&gt;, &lt;br&gt;&lt;/font&gt;&lt;/div&gt;&lt;div&gt;&lt;font style=&quot;font-size: 18px;&quot;&gt;&quot;Sleigh of Hand&lt;/font&gt;&lt;font style=&quot;font-size: 18px;&quot;&gt;&quot;)&lt;/font&gt;&lt;/div&gt;" style="text;html=1;align=center;verticalAlign=middle;resizable=0;points=[];autosize=1;strokeColor=none;fillColor=none;" parent="2Emxo1YxTL0GBM5rEkE9-28" vertex="1">
          <mxGeometry x="460" y="160" width="170" height="60" as="geometry" />
        </mxCell>
        <mxCell id="2Emxo1YxTL0GBM5rEkE9-8" value="" style="endArrow=none;html=1;rounded=0;" parent="2Emxo1YxTL0GBM5rEkE9-28" source="2Emxo1YxTL0GBM5rEkE9-9" target="2Emxo1YxTL0GBM5rEkE9-1" edge="1">
          <mxGeometry width="50" height="50" relative="1" as="geometry">
            <mxPoint x="390" y="270" as="sourcePoint" />
            <mxPoint x="440" y="220" as="targetPoint" />
          </mxGeometry>
        </mxCell>
        <mxCell id="2Emxo1YxTL0GBM5rEkE9-9" value="&lt;div&gt;&lt;font style=&quot;font-size: 18px;&quot;&gt;Ability(&quot;Nature&quot;&lt;/font&gt;&lt;font style=&quot;font-size: 18px;&quot;&gt;, &lt;br&gt;&lt;/font&gt;&lt;/div&gt;&lt;div&gt;&lt;font style=&quot;font-size: 18px;&quot;&gt;&quot;Artificer&quot;)&lt;/font&gt;&lt;/div&gt;" style="text;html=1;align=center;verticalAlign=middle;resizable=0;points=[];autosize=1;strokeColor=none;fillColor=none;" parent="2Emxo1YxTL0GBM5rEkE9-28" vertex="1">
          <mxGeometry x="260" y="83" width="150" height="60" as="geometry" />
        </mxCell>
        <mxCell id="2Emxo1YxTL0GBM5rEkE9-10" value="&lt;div&gt;&lt;font style=&quot;font-size: 18px;&quot;&gt;Ability(&quot;Wisdom&quot;&lt;/font&gt;&lt;font style=&quot;font-size: 18px;&quot;&gt;, &lt;br&gt;&lt;/font&gt;&lt;/div&gt;&lt;div&gt;&lt;font style=&quot;font-size: 18px;&quot;&gt;&quot;&lt;/font&gt;&lt;font style=&quot;font-size: 18px;&quot;&gt;Nature&lt;/font&gt;&lt;font style=&quot;font-size: 18px;&quot;&gt;&quot;)&lt;/font&gt;&lt;/div&gt;" style="text;html=1;align=center;verticalAlign=middle;resizable=0;points=[];autosize=1;strokeColor=none;fillColor=none;" parent="2Emxo1YxTL0GBM5rEkE9-28" vertex="1">
          <mxGeometry x="255" y="160" width="160" height="60" as="geometry" />
        </mxCell>
        <mxCell id="2Emxo1YxTL0GBM5rEkE9-11" value="" style="endArrow=none;html=1;rounded=0;" parent="2Emxo1YxTL0GBM5rEkE9-28" source="2Emxo1YxTL0GBM5rEkE9-3" target="2Emxo1YxTL0GBM5rEkE9-2" edge="1">
          <mxGeometry width="50" height="50" relative="1" as="geometry">
            <mxPoint x="430" y="270" as="sourcePoint" />
            <mxPoint x="480" y="220" as="targetPoint" />
          </mxGeometry>
        </mxCell>
        <mxCell id="2Emxo1YxTL0GBM5rEkE9-13" value="" style="endArrow=none;html=1;rounded=0;" parent="2Emxo1YxTL0GBM5rEkE9-28" source="2Emxo1YxTL0GBM5rEkE9-10" target="2Emxo1YxTL0GBM5rEkE9-9" edge="1">
          <mxGeometry width="50" height="50" relative="1" as="geometry">
            <mxPoint x="128" y="170" as="sourcePoint" />
            <mxPoint x="142" y="153" as="targetPoint" />
          </mxGeometry>
        </mxCell>
        <mxCell id="2Emxo1YxTL0GBM5rEkE9-14" value="" style="endArrow=none;html=1;rounded=0;" parent="2Emxo1YxTL0GBM5rEkE9-28" source="2Emxo1YxTL0GBM5rEkE9-7" target="2Emxo1YxTL0GBM5rEkE9-4" edge="1">
          <mxGeometry width="50" height="50" relative="1" as="geometry">
            <mxPoint x="108" y="180" as="sourcePoint" />
            <mxPoint x="122" y="163" as="targetPoint" />
          </mxGeometry>
        </mxCell>
        <mxCell id="2Emxo1YxTL0GBM5rEkE9-120" value="" style="group" parent="2Emxo1YxTL0GBM5rEkE9-28" vertex="1" connectable="0">
          <mxGeometry x="620" y="-10" width="950" height="220" as="geometry" />
        </mxCell>
        <mxCell id="2Emxo1YxTL0GBM5rEkE9-43" value="&lt;div&gt;&lt;font style=&quot;font-size: 18px;&quot;&gt;Ability(&quot;Perception&quot;&lt;/font&gt;&lt;font style=&quot;font-size: 18px;&quot;&gt;, &lt;br&gt;&lt;/font&gt;&lt;/div&gt;&lt;div&gt;&lt;font style=&quot;font-size: 18px;&quot;&gt;&quot;Barbarian&lt;/font&gt;&lt;font style=&quot;font-size: 18px;&quot;&gt;&quot;)&lt;/font&gt;&lt;/div&gt;" style="text;html=1;align=center;verticalAlign=middle;resizable=0;points=[];autosize=1;strokeColor=none;fillColor=none;" parent="2Emxo1YxTL0GBM5rEkE9-120" vertex="1">
          <mxGeometry x="670" y="93" width="180" height="60" as="geometry" />
        </mxCell>
        <mxCell id="2Emxo1YxTL0GBM5rEkE9-44" value="" style="endArrow=none;html=1;rounded=0;entryX=1;entryY=1;entryDx=0;entryDy=0;" parent="2Emxo1YxTL0GBM5rEkE9-120" source="2Emxo1YxTL0GBM5rEkE9-43" target="2Emxo1YxTL0GBM5rEkE9-30" edge="1">
          <mxGeometry width="50" height="50" relative="1" as="geometry">
            <mxPoint x="615.9200000000001" y="73.01999999999998" as="sourcePoint" />
            <mxPoint x="520" y="32" as="targetPoint" />
          </mxGeometry>
        </mxCell>
        <mxCell id="2Emxo1YxTL0GBM5rEkE9-45" value="&lt;div&gt;&lt;font style=&quot;font-size: 18px;&quot;&gt;Ability(&quot;Intelligence&quot;&lt;/font&gt;&lt;font style=&quot;font-size: 18px;&quot;&gt;, &lt;br&gt;&lt;/font&gt;&lt;/div&gt;&lt;div&gt;&lt;font style=&quot;font-size: 18px;&quot;&gt;&quot;&lt;/font&gt;&lt;font style=&quot;font-size: 18px;&quot;&gt;Perception&lt;/font&gt;&lt;font style=&quot;font-size: 18px;&quot;&gt;&quot;)&lt;/font&gt;&lt;/div&gt;" style="text;html=1;align=center;verticalAlign=middle;resizable=0;points=[];autosize=1;strokeColor=none;fillColor=none;" parent="2Emxo1YxTL0GBM5rEkE9-120" vertex="1">
          <mxGeometry x="745" y="173" width="190" height="60" as="geometry" />
        </mxCell>
        <mxCell id="2Emxo1YxTL0GBM5rEkE9-47" value="" style="endArrow=none;html=1;rounded=0;exitX=0.329;exitY=-0.033;exitDx=0;exitDy=0;exitPerimeter=0;" parent="2Emxo1YxTL0GBM5rEkE9-120" source="2Emxo1YxTL0GBM5rEkE9-45" target="2Emxo1YxTL0GBM5rEkE9-43" edge="1">
          <mxGeometry width="50" height="50" relative="1" as="geometry">
            <mxPoint x="797" y="172" as="sourcePoint" />
            <mxPoint x="789" y="155" as="targetPoint" />
          </mxGeometry>
        </mxCell>
        <mxCell id="2Emxo1YxTL0GBM5rEkE9-30" value="&lt;font style=&quot;font-size: 18px;&quot;&gt;Barbarian&lt;/font&gt;" style="text;html=1;strokeColor=none;fillColor=none;align=center;verticalAlign=middle;whiteSpace=wrap;rounded=0;" parent="2Emxo1YxTL0GBM5rEkE9-120" vertex="1">
          <mxGeometry x="459" y="2" width="60" height="20" as="geometry" />
        </mxCell>
        <mxCell id="2Emxo1YxTL0GBM5rEkE9-31" value="&lt;div&gt;&lt;font style=&quot;font-size: 18px;&quot;&gt;Ability(&quot;Athletics&quot;&lt;/font&gt;&lt;font style=&quot;font-size: 18px;&quot;&gt;, &lt;br&gt;&lt;/font&gt;&lt;/div&gt;&lt;div&gt;&lt;font style=&quot;font-size: 18px;&quot;&gt;&quot;&lt;/font&gt;&lt;font style=&quot;font-size: 18px;&quot;&gt;Barbarian&lt;/font&gt;&lt;font style=&quot;font-size: 18px;&quot;&gt;&quot;)&lt;/font&gt;&lt;/div&gt;" style="text;html=1;align=center;verticalAlign=middle;resizable=0;points=[];autosize=1;strokeColor=none;fillColor=none;" parent="2Emxo1YxTL0GBM5rEkE9-120" vertex="1">
          <mxGeometry x="115" y="93" width="160" height="60" as="geometry" />
        </mxCell>
        <mxCell id="2Emxo1YxTL0GBM5rEkE9-32" value="&lt;div&gt;&lt;font style=&quot;font-size: 18px;&quot;&gt;Ability(&quot;Strength&quot;&lt;/font&gt;&lt;font style=&quot;font-size: 18px;&quot;&gt;, &lt;br&gt;&lt;/font&gt;&lt;/div&gt;&lt;div&gt;&lt;font style=&quot;font-size: 18px;&quot;&gt;&quot;Athletics&lt;/font&gt;&lt;font style=&quot;font-size: 18px;&quot;&gt;&quot;)&lt;/font&gt;&lt;/div&gt;" style="text;html=1;align=center;verticalAlign=middle;resizable=0;points=[];autosize=1;strokeColor=none;fillColor=none;" parent="2Emxo1YxTL0GBM5rEkE9-120" vertex="1">
          <mxGeometry x="60" y="170" width="160" height="60" as="geometry" />
        </mxCell>
        <mxCell id="2Emxo1YxTL0GBM5rEkE9-33" value="&lt;div&gt;&lt;font style=&quot;font-size: 18px;&quot;&gt;Ability(&quot;Intimidation&quot;&lt;/font&gt;&lt;font style=&quot;font-size: 18px;&quot;&gt;, &lt;br&gt;&lt;/font&gt;&lt;/div&gt;&lt;div&gt;&lt;font style=&quot;font-size: 18px;&quot;&gt;&quot;&lt;/font&gt;&lt;font style=&quot;font-size: 18px;&quot;&gt;Barbarian&lt;/font&gt;&lt;font style=&quot;font-size: 18px;&quot;&gt;&quot;)&lt;/font&gt;&lt;/div&gt;" style="text;html=1;align=center;verticalAlign=middle;resizable=0;points=[];autosize=1;strokeColor=none;fillColor=none;" parent="2Emxo1YxTL0GBM5rEkE9-120" vertex="1">
          <mxGeometry x="490" y="93" width="190" height="60" as="geometry" />
        </mxCell>
        <mxCell id="2Emxo1YxTL0GBM5rEkE9-34" value="" style="endArrow=none;html=1;rounded=0;entryX=0;entryY=1;entryDx=0;entryDy=0;" parent="2Emxo1YxTL0GBM5rEkE9-120" source="2Emxo1YxTL0GBM5rEkE9-31" target="2Emxo1YxTL0GBM5rEkE9-30" edge="1">
          <mxGeometry width="50" height="50" relative="1" as="geometry">
            <mxPoint x="235" y="83" as="sourcePoint" />
            <mxPoint x="285" y="33" as="targetPoint" />
          </mxGeometry>
        </mxCell>
        <mxCell id="2Emxo1YxTL0GBM5rEkE9-35" value="" style="endArrow=none;html=1;rounded=0;entryX=0.75;entryY=1;entryDx=0;entryDy=0;" parent="2Emxo1YxTL0GBM5rEkE9-120" source="2Emxo1YxTL0GBM5rEkE9-33" target="2Emxo1YxTL0GBM5rEkE9-30" edge="1">
          <mxGeometry width="50" height="50" relative="1" as="geometry">
            <mxPoint x="410.9200000000001" y="88.01999999999998" as="sourcePoint" />
            <mxPoint x="505" y="32" as="targetPoint" />
          </mxGeometry>
        </mxCell>
        <mxCell id="2Emxo1YxTL0GBM5rEkE9-36" value="&lt;div&gt;&lt;font style=&quot;font-size: 18px;&quot;&gt;Ability(&quot;Charisma&quot;&lt;/font&gt;&lt;font style=&quot;font-size: 18px;&quot;&gt;, &lt;br&gt;&lt;/font&gt;&lt;/div&gt;&lt;div&gt;&lt;font style=&quot;font-size: 18px;&quot;&gt;&quot;&lt;/font&gt;&lt;font style=&quot;font-size: 18px;&quot;&gt;Intimidation&lt;/font&gt;&lt;font style=&quot;font-size: 18px;&quot;&gt;&quot;)&lt;/font&gt;&lt;/div&gt;" style="text;html=1;align=center;verticalAlign=middle;resizable=0;points=[];autosize=1;strokeColor=none;fillColor=none;" parent="2Emxo1YxTL0GBM5rEkE9-120" vertex="1">
          <mxGeometry x="540" y="170" width="170" height="60" as="geometry" />
        </mxCell>
        <mxCell id="2Emxo1YxTL0GBM5rEkE9-37" value="" style="endArrow=none;html=1;rounded=0;" parent="2Emxo1YxTL0GBM5rEkE9-120" source="2Emxo1YxTL0GBM5rEkE9-38" target="2Emxo1YxTL0GBM5rEkE9-30" edge="1">
          <mxGeometry width="50" height="50" relative="1" as="geometry">
            <mxPoint x="385" y="270" as="sourcePoint" />
            <mxPoint x="435" y="220" as="targetPoint" />
          </mxGeometry>
        </mxCell>
        <mxCell id="2Emxo1YxTL0GBM5rEkE9-38" value="&lt;div&gt;&lt;font style=&quot;font-size: 18px;&quot;&gt;Ability(&quot;Animal Handling&quot;&lt;/font&gt;&lt;font style=&quot;font-size: 18px;&quot;&gt;, &lt;br&gt;&lt;/font&gt;&lt;/div&gt;&lt;div&gt;&lt;font style=&quot;font-size: 18px;&quot;&gt;&quot;&lt;/font&gt;&lt;font style=&quot;font-size: 18px;&quot;&gt;Barbarian&lt;/font&gt;&lt;font style=&quot;font-size: 18px;&quot;&gt;&quot;)&lt;/font&gt;&lt;/div&gt;" style="text;html=1;align=center;verticalAlign=middle;resizable=0;points=[];autosize=1;strokeColor=none;fillColor=none;" parent="2Emxo1YxTL0GBM5rEkE9-120" vertex="1">
          <mxGeometry x="265" y="93" width="230" height="60" as="geometry" />
        </mxCell>
        <mxCell id="2Emxo1YxTL0GBM5rEkE9-39" value="&lt;div&gt;&lt;font style=&quot;font-size: 18px;&quot;&gt;Ability(&quot;Wisdom&quot;&lt;/font&gt;&lt;font style=&quot;font-size: 18px;&quot;&gt;, &lt;br&gt;&lt;/font&gt;&lt;/div&gt;&lt;div&gt;&lt;font style=&quot;font-size: 18px;&quot;&gt;&quot;&lt;/font&gt;&lt;font style=&quot;font-size: 18px;&quot;&gt;Animal Handling&lt;/font&gt;&lt;font style=&quot;font-size: 18px;&quot;&gt;&quot;)&lt;/font&gt;&lt;/div&gt;" style="text;html=1;align=center;verticalAlign=middle;resizable=0;points=[];autosize=1;strokeColor=none;fillColor=none;" parent="2Emxo1YxTL0GBM5rEkE9-120" vertex="1">
          <mxGeometry x="265" y="170" width="170" height="60" as="geometry" />
        </mxCell>
        <mxCell id="2Emxo1YxTL0GBM5rEkE9-40" value="" style="endArrow=none;html=1;rounded=0;" parent="2Emxo1YxTL0GBM5rEkE9-120" source="2Emxo1YxTL0GBM5rEkE9-32" target="2Emxo1YxTL0GBM5rEkE9-31" edge="1">
          <mxGeometry width="50" height="50" relative="1" as="geometry">
            <mxPoint x="445" y="280" as="sourcePoint" />
            <mxPoint x="495" y="230" as="targetPoint" />
          </mxGeometry>
        </mxCell>
        <mxCell id="2Emxo1YxTL0GBM5rEkE9-41" value="" style="endArrow=none;html=1;rounded=0;" parent="2Emxo1YxTL0GBM5rEkE9-120" source="2Emxo1YxTL0GBM5rEkE9-39" target="2Emxo1YxTL0GBM5rEkE9-38" edge="1">
          <mxGeometry width="50" height="50" relative="1" as="geometry">
            <mxPoint x="173" y="180" as="sourcePoint" />
            <mxPoint x="187" y="163" as="targetPoint" />
          </mxGeometry>
        </mxCell>
        <mxCell id="2Emxo1YxTL0GBM5rEkE9-42" value="" style="endArrow=none;html=1;rounded=0;" parent="2Emxo1YxTL0GBM5rEkE9-120" source="2Emxo1YxTL0GBM5rEkE9-36" target="2Emxo1YxTL0GBM5rEkE9-33" edge="1">
          <mxGeometry width="50" height="50" relative="1" as="geometry">
            <mxPoint x="158" y="190" as="sourcePoint" />
            <mxPoint x="172" y="173" as="targetPoint" />
          </mxGeometry>
        </mxCell>
        <mxCell id="2Emxo1YxTL0GBM5rEkE9-96" value="&lt;div&gt;&lt;font style=&quot;font-size: 18px;&quot;&gt;Ability(&quot;Acrobatics&quot;&lt;/font&gt;&lt;font style=&quot;font-size: 18px;&quot;&gt;, &lt;br&gt;&lt;/font&gt;&lt;/div&gt;&lt;div&gt;&lt;font style=&quot;font-size: 18px;&quot;&gt;&quot;Artificer&quot;)&lt;/font&gt;&lt;/div&gt;" style="text;html=1;align=center;verticalAlign=middle;resizable=0;points=[];autosize=1;strokeColor=none;fillColor=none;" parent="1" vertex="1">
          <mxGeometry x="1040" y="393" width="180" height="60" as="geometry" />
        </mxCell>
        <mxCell id="2Emxo1YxTL0GBM5rEkE9-97" value="" style="endArrow=none;html=1;rounded=0;entryX=1;entryY=1;entryDx=0;entryDy=0;" parent="1" source="2Emxo1YxTL0GBM5rEkE9-96" target="2Emxo1YxTL0GBM5rEkE9-79" edge="1">
          <mxGeometry width="50" height="50" relative="1" as="geometry">
            <mxPoint x="1035.92" y="378.02" as="sourcePoint" />
            <mxPoint x="1010" y="330" as="targetPoint" />
          </mxGeometry>
        </mxCell>
        <mxCell id="2Emxo1YxTL0GBM5rEkE9-98" value="&lt;div&gt;&lt;font style=&quot;font-size: 18px;&quot;&gt;Ability(&quot;Dexterity&quot;&lt;/font&gt;&lt;font style=&quot;font-size: 18px;&quot;&gt;, &lt;br&gt;&lt;/font&gt;&lt;/div&gt;&lt;div&gt;&lt;font style=&quot;font-size: 18px;&quot;&gt;&quot;&lt;/font&gt;&lt;font style=&quot;font-size: 18px;&quot;&gt;Acrobatics&lt;/font&gt;&lt;font style=&quot;font-size: 18px;&quot;&gt;&quot;)&lt;/font&gt;&lt;/div&gt;" style="text;html=1;align=center;verticalAlign=middle;resizable=0;points=[];autosize=1;strokeColor=none;fillColor=none;" parent="1" vertex="1">
          <mxGeometry x="1120" y="463" width="170" height="60" as="geometry" />
        </mxCell>
        <mxCell id="2Emxo1YxTL0GBM5rEkE9-99" value="" style="endArrow=none;html=1;rounded=0;" parent="1" source="2Emxo1YxTL0GBM5rEkE9-98" target="2Emxo1YxTL0GBM5rEkE9-96" edge="1">
          <mxGeometry width="50" height="50" relative="1" as="geometry">
            <mxPoint x="768" y="483" as="sourcePoint" />
            <mxPoint x="782" y="466" as="targetPoint" />
          </mxGeometry>
        </mxCell>
        <mxCell id="2Emxo1YxTL0GBM5rEkE9-92" value="&lt;div&gt;&lt;font style=&quot;font-size: 18px;&quot;&gt;Ability(&quot;Insight&quot;&lt;/font&gt;&lt;font style=&quot;font-size: 18px;&quot;&gt;, &lt;br&gt;&lt;/font&gt;&lt;/div&gt;&lt;div&gt;&lt;font style=&quot;font-size: 18px;&quot;&gt;&quot;&lt;/font&gt;&lt;font style=&quot;font-size: 18px;&quot;&gt;Bard&lt;/font&gt;&lt;font style=&quot;font-size: 18px;&quot;&gt;&quot;)&lt;/font&gt;&lt;/div&gt;" style="text;html=1;align=center;verticalAlign=middle;resizable=0;points=[];autosize=1;strokeColor=none;fillColor=none;container=0;" parent="1" vertex="1">
          <mxGeometry x="876" y="394" width="150" height="60" as="geometry" />
        </mxCell>
        <mxCell id="2Emxo1YxTL0GBM5rEkE9-93" value="" style="endArrow=none;html=1;rounded=0;entryX=0.75;entryY=1;entryDx=0;entryDy=0;" parent="1" source="2Emxo1YxTL0GBM5rEkE9-92" target="2Emxo1YxTL0GBM5rEkE9-79" edge="1">
          <mxGeometry width="50" height="50" relative="1" as="geometry">
            <mxPoint x="795.9200000000001" y="373.02" as="sourcePoint" />
            <mxPoint x="770" y="330" as="targetPoint" />
          </mxGeometry>
        </mxCell>
        <mxCell id="2Emxo1YxTL0GBM5rEkE9-94" value="&lt;div&gt;&lt;font style=&quot;font-size: 18px;&quot;&gt;Ability(&quot;Intelligence&quot;&lt;/font&gt;&lt;font style=&quot;font-size: 18px;&quot;&gt;, &lt;br&gt;&lt;/font&gt;&lt;/div&gt;&lt;div&gt;&lt;font style=&quot;font-size: 18px;&quot;&gt;&quot;&lt;/font&gt;&lt;font style=&quot;font-size: 18px;&quot;&gt;Insight&lt;/font&gt;&lt;font style=&quot;font-size: 18px;&quot;&gt;&quot;)&lt;/font&gt;&lt;/div&gt;" style="text;html=1;align=center;verticalAlign=middle;resizable=0;points=[];autosize=1;strokeColor=none;fillColor=none;container=0;" parent="1" vertex="1">
          <mxGeometry x="930" y="471" width="190" height="60" as="geometry" />
        </mxCell>
        <mxCell id="2Emxo1YxTL0GBM5rEkE9-95" value="" style="endArrow=none;html=1;rounded=0;exitX=0.329;exitY=-0.033;exitDx=0;exitDy=0;exitPerimeter=0;" parent="1" source="2Emxo1YxTL0GBM5rEkE9-94" target="2Emxo1YxTL0GBM5rEkE9-92" edge="1">
          <mxGeometry width="50" height="50" relative="1" as="geometry">
            <mxPoint x="982" y="469" as="sourcePoint" />
            <mxPoint x="974" y="452" as="targetPoint" />
          </mxGeometry>
        </mxCell>
        <mxCell id="2Emxo1YxTL0GBM5rEkE9-79" value="&lt;font style=&quot;font-size: 18px;&quot;&gt;Bard&lt;/font&gt;" style="text;html=1;strokeColor=none;fillColor=none;align=center;verticalAlign=middle;whiteSpace=wrap;rounded=0;" parent="1" vertex="1">
          <mxGeometry x="755" y="290" width="60" height="20" as="geometry" />
        </mxCell>
        <mxCell id="2Emxo1YxTL0GBM5rEkE9-80" value="&lt;div&gt;&lt;font style=&quot;font-size: 18px;&quot;&gt;Ability(&quot;Athletics&quot;&lt;/font&gt;&lt;font style=&quot;font-size: 18px;&quot;&gt;, &lt;br&gt;&lt;/font&gt;&lt;/div&gt;&lt;div&gt;&lt;font style=&quot;font-size: 18px;&quot;&gt;&quot;&lt;/font&gt;&lt;font style=&quot;font-size: 18px;&quot;&gt;Bard&lt;/font&gt;&lt;font style=&quot;font-size: 18px;&quot;&gt;&quot;)&lt;/font&gt;&lt;/div&gt;" style="text;html=1;align=center;verticalAlign=middle;resizable=0;points=[];autosize=1;strokeColor=none;fillColor=none;" parent="1" vertex="1">
          <mxGeometry x="355" y="394" width="160" height="60" as="geometry" />
        </mxCell>
        <mxCell id="2Emxo1YxTL0GBM5rEkE9-81" value="&lt;div&gt;&lt;font style=&quot;font-size: 18px;&quot;&gt;Ability(&quot;Strength&quot;&lt;/font&gt;&lt;font style=&quot;font-size: 18px;&quot;&gt;, &lt;br&gt;&lt;/font&gt;&lt;/div&gt;&lt;div&gt;&lt;font style=&quot;font-size: 18px;&quot;&gt;&quot;Athletics&lt;/font&gt;&lt;font style=&quot;font-size: 18px;&quot;&gt;&quot;)&lt;/font&gt;&lt;/div&gt;" style="text;html=1;align=center;verticalAlign=middle;resizable=0;points=[];autosize=1;strokeColor=none;fillColor=none;" parent="1" vertex="1">
          <mxGeometry x="300" y="471" width="160" height="60" as="geometry" />
        </mxCell>
        <mxCell id="2Emxo1YxTL0GBM5rEkE9-82" value="&lt;div&gt;&lt;font style=&quot;font-size: 18px;&quot;&gt;Ability(&quot;Persuasion&quot;&lt;/font&gt;&lt;font style=&quot;font-size: 18px;&quot;&gt;, &lt;br&gt;&lt;/font&gt;&lt;/div&gt;&lt;div&gt;&lt;font style=&quot;font-size: 18px;&quot;&gt;&quot;&lt;/font&gt;&lt;font style=&quot;font-size: 18px;&quot;&gt;Bard&lt;/font&gt;&lt;font style=&quot;font-size: 18px;&quot;&gt;&quot;)&lt;/font&gt;&lt;/div&gt;" style="text;html=1;align=center;verticalAlign=middle;resizable=0;points=[];autosize=1;strokeColor=none;fillColor=none;" parent="1" vertex="1">
          <mxGeometry x="691" y="394" width="190" height="60" as="geometry" />
        </mxCell>
        <mxCell id="2Emxo1YxTL0GBM5rEkE9-83" value="" style="endArrow=none;html=1;rounded=0;entryX=0;entryY=1;entryDx=0;entryDy=0;" parent="1" source="2Emxo1YxTL0GBM5rEkE9-80" target="2Emxo1YxTL0GBM5rEkE9-79" edge="1">
          <mxGeometry width="50" height="50" relative="1" as="geometry">
            <mxPoint x="440" y="393" as="sourcePoint" />
            <mxPoint x="490" y="343" as="targetPoint" />
          </mxGeometry>
        </mxCell>
        <mxCell id="2Emxo1YxTL0GBM5rEkE9-84" value="" style="endArrow=none;html=1;rounded=0;entryX=0.5;entryY=1;entryDx=0;entryDy=0;" parent="1" source="2Emxo1YxTL0GBM5rEkE9-82" target="2Emxo1YxTL0GBM5rEkE9-79" edge="1">
          <mxGeometry width="50" height="50" relative="1" as="geometry">
            <mxPoint x="590.9200000000001" y="388.02" as="sourcePoint" />
            <mxPoint x="556" y="350" as="targetPoint" />
            <Array as="points" />
          </mxGeometry>
        </mxCell>
        <mxCell id="2Emxo1YxTL0GBM5rEkE9-85" value="&lt;div&gt;&lt;font style=&quot;font-size: 18px;&quot;&gt;Ability(&quot;Charisma&quot;&lt;/font&gt;&lt;font style=&quot;font-size: 18px;&quot;&gt;, &lt;br&gt;&lt;/font&gt;&lt;/div&gt;&lt;div&gt;&lt;font style=&quot;font-size: 18px;&quot;&gt;&quot;&lt;/font&gt;&lt;font style=&quot;font-size: 18px;&quot;&gt;Persuasion&lt;/font&gt;&lt;font style=&quot;font-size: 18px;&quot;&gt;&quot;)&lt;/font&gt;&lt;/div&gt;" style="text;html=1;align=center;verticalAlign=middle;resizable=0;points=[];autosize=1;strokeColor=none;fillColor=none;" parent="1" vertex="1">
          <mxGeometry x="701" y="470" width="170" height="60" as="geometry" />
        </mxCell>
        <mxCell id="2Emxo1YxTL0GBM5rEkE9-86" value="" style="endArrow=none;html=1;rounded=0;" parent="1" source="2Emxo1YxTL0GBM5rEkE9-87" target="2Emxo1YxTL0GBM5rEkE9-79" edge="1">
          <mxGeometry width="50" height="50" relative="1" as="geometry">
            <mxPoint x="590" y="580" as="sourcePoint" />
            <mxPoint x="640" y="530" as="targetPoint" />
          </mxGeometry>
        </mxCell>
        <mxCell id="2Emxo1YxTL0GBM5rEkE9-87" value="&lt;div&gt;&lt;font style=&quot;font-size: 18px;&quot;&gt;Ability(&quot;Religion&quot;&lt;/font&gt;&lt;font style=&quot;font-size: 18px;&quot;&gt;, &lt;br&gt;&lt;/font&gt;&lt;/div&gt;&lt;div&gt;&lt;font style=&quot;font-size: 18px;&quot;&gt;&quot;&lt;/font&gt;&lt;font style=&quot;font-size: 18px;&quot;&gt;Bard&lt;/font&gt;&lt;font style=&quot;font-size: 18px;&quot;&gt;&quot;)&lt;/font&gt;&lt;/div&gt;" style="text;html=1;align=center;verticalAlign=middle;resizable=0;points=[];autosize=1;strokeColor=none;fillColor=none;" parent="1" vertex="1">
          <mxGeometry x="540" y="393" width="160" height="60" as="geometry" />
        </mxCell>
        <mxCell id="2Emxo1YxTL0GBM5rEkE9-88" value="&lt;div&gt;&lt;font style=&quot;font-size: 18px;&quot;&gt;Ability(&quot;Wisdom&quot;&lt;/font&gt;&lt;font style=&quot;font-size: 18px;&quot;&gt;, &lt;br&gt;&lt;/font&gt;&lt;/div&gt;&lt;div&gt;&lt;font style=&quot;font-size: 18px;&quot;&gt;&quot;&lt;/font&gt;&lt;font style=&quot;font-size: 18px;&quot;&gt;Religion&lt;/font&gt;&lt;font style=&quot;font-size: 18px;&quot;&gt;&quot;)&lt;/font&gt;&lt;/div&gt;" style="text;html=1;align=center;verticalAlign=middle;resizable=0;points=[];autosize=1;strokeColor=none;fillColor=none;" parent="1" vertex="1">
          <mxGeometry x="475" y="470" width="160" height="60" as="geometry" />
        </mxCell>
        <mxCell id="2Emxo1YxTL0GBM5rEkE9-89" value="" style="endArrow=none;html=1;rounded=0;" parent="1" source="2Emxo1YxTL0GBM5rEkE9-81" target="2Emxo1YxTL0GBM5rEkE9-80" edge="1">
          <mxGeometry width="50" height="50" relative="1" as="geometry">
            <mxPoint x="685" y="581" as="sourcePoint" />
            <mxPoint x="735" y="531" as="targetPoint" />
          </mxGeometry>
        </mxCell>
        <mxCell id="2Emxo1YxTL0GBM5rEkE9-90" value="" style="endArrow=none;html=1;rounded=0;" parent="1" source="2Emxo1YxTL0GBM5rEkE9-88" target="2Emxo1YxTL0GBM5rEkE9-87" edge="1">
          <mxGeometry width="50" height="50" relative="1" as="geometry">
            <mxPoint x="368" y="480" as="sourcePoint" />
            <mxPoint x="382" y="463" as="targetPoint" />
          </mxGeometry>
        </mxCell>
        <mxCell id="2Emxo1YxTL0GBM5rEkE9-91" value="" style="endArrow=none;html=1;rounded=0;" parent="1" source="2Emxo1YxTL0GBM5rEkE9-85" target="2Emxo1YxTL0GBM5rEkE9-82" edge="1">
          <mxGeometry width="50" height="50" relative="1" as="geometry">
            <mxPoint x="339" y="484" as="sourcePoint" />
            <mxPoint x="353" y="467" as="targetPoint" />
          </mxGeometry>
        </mxCell>
        <mxCell id="2Emxo1YxTL0GBM5rEkE9-105" value="" style="group" parent="1" vertex="1" connectable="0">
          <mxGeometry x="1220" y="320" width="660" height="220" as="geometry" />
        </mxCell>
        <mxCell id="2Emxo1YxTL0GBM5rEkE9-106" value="&lt;font style=&quot;font-size: 18px;&quot;&gt;Wizard&lt;/font&gt;" style="text;html=1;strokeColor=none;fillColor=none;align=center;verticalAlign=middle;whiteSpace=wrap;rounded=0;" parent="2Emxo1YxTL0GBM5rEkE9-105" vertex="1">
          <mxGeometry x="305" width="60" height="30" as="geometry" />
        </mxCell>
        <mxCell id="2Emxo1YxTL0GBM5rEkE9-107" value="&lt;div&gt;&lt;font style=&quot;font-size: 18px;&quot;&gt;Ability(&quot;Arcana&quot;&lt;/font&gt;&lt;font style=&quot;font-size: 18px;&quot;&gt;, &lt;br&gt;&lt;/font&gt;&lt;/div&gt;&lt;div&gt;&lt;font style=&quot;font-size: 18px;&quot;&gt;&quot;&lt;/font&gt;&lt;font style=&quot;font-size: 18px;&quot;&gt;Wizard&lt;/font&gt;&lt;font style=&quot;font-size: 18px;&quot;&gt;&quot;)&lt;/font&gt;&lt;/div&gt;" style="text;html=1;align=center;verticalAlign=middle;resizable=0;points=[];autosize=1;strokeColor=none;fillColor=none;" parent="2Emxo1YxTL0GBM5rEkE9-105" vertex="1">
          <mxGeometry x="150" y="60" width="150" height="60" as="geometry" />
        </mxCell>
        <mxCell id="2Emxo1YxTL0GBM5rEkE9-108" value="&lt;div&gt;&lt;font style=&quot;font-size: 18px;&quot;&gt;Ability(&quot;Intelligence&quot;&lt;/font&gt;&lt;font style=&quot;font-size: 18px;&quot;&gt;, &lt;br&gt;&lt;/font&gt;&lt;/div&gt;&lt;div&gt;&lt;font style=&quot;font-size: 18px;&quot;&gt;&quot;&lt;/font&gt;&lt;font style=&quot;font-size: 18px;&quot;&gt;Arcana&lt;/font&gt;&lt;font style=&quot;font-size: 18px;&quot;&gt;&quot;)&lt;/font&gt;&lt;/div&gt;" style="text;html=1;align=center;verticalAlign=middle;resizable=0;points=[];autosize=1;strokeColor=none;fillColor=none;" parent="2Emxo1YxTL0GBM5rEkE9-105" vertex="1">
          <mxGeometry x="70" y="137" width="190" height="60" as="geometry" />
        </mxCell>
        <mxCell id="2Emxo1YxTL0GBM5rEkE9-110" value="" style="endArrow=none;html=1;rounded=0;entryX=0;entryY=1;entryDx=0;entryDy=0;" parent="2Emxo1YxTL0GBM5rEkE9-105" source="2Emxo1YxTL0GBM5rEkE9-107" target="2Emxo1YxTL0GBM5rEkE9-106" edge="1">
          <mxGeometry width="50" height="50" relative="1" as="geometry">
            <mxPoint x="240" y="83" as="sourcePoint" />
            <mxPoint x="290" y="33" as="targetPoint" />
          </mxGeometry>
        </mxCell>
        <mxCell id="2Emxo1YxTL0GBM5rEkE9-111" value="" style="endArrow=none;html=1;rounded=0;entryX=1;entryY=1;entryDx=0;entryDy=0;exitX=0.229;exitY=0.017;exitDx=0;exitDy=0;exitPerimeter=0;" parent="2Emxo1YxTL0GBM5rEkE9-105" source="2Emxo1YxTL0GBM5rEkE9-114" target="2Emxo1YxTL0GBM5rEkE9-106" edge="1">
          <mxGeometry width="50" height="50" relative="1" as="geometry">
            <mxPoint x="473.5542168674697" y="83" as="sourcePoint" />
            <mxPoint x="356" y="40" as="targetPoint" />
          </mxGeometry>
        </mxCell>
        <mxCell id="2Emxo1YxTL0GBM5rEkE9-114" value="&lt;div&gt;&lt;font style=&quot;font-size: 18px;&quot;&gt;Ability(&quot;Medicine&quot;&lt;/font&gt;&lt;font style=&quot;font-size: 18px;&quot;&gt;, &lt;br&gt;&lt;/font&gt;&lt;/div&gt;&lt;div&gt;&lt;font style=&quot;font-size: 18px;&quot;&gt;&quot;Artificer&quot;)&lt;/font&gt;&lt;/div&gt;" style="text;html=1;align=center;verticalAlign=middle;resizable=0;points=[];autosize=1;strokeColor=none;fillColor=none;" parent="2Emxo1YxTL0GBM5rEkE9-105" vertex="1">
          <mxGeometry x="360" y="60" width="170" height="60" as="geometry" />
        </mxCell>
        <mxCell id="2Emxo1YxTL0GBM5rEkE9-115" value="&lt;div&gt;&lt;font style=&quot;font-size: 18px;&quot;&gt;Ability(&quot;Wisdom&quot;&lt;/font&gt;&lt;font style=&quot;font-size: 18px;&quot;&gt;, &lt;br&gt;&lt;/font&gt;&lt;/div&gt;&lt;div&gt;&lt;font style=&quot;font-size: 18px;&quot;&gt;&quot;Medicine&quot;)&lt;/font&gt;&lt;/div&gt;" style="text;html=1;align=center;verticalAlign=middle;resizable=0;points=[];autosize=1;strokeColor=none;fillColor=none;" parent="2Emxo1YxTL0GBM5rEkE9-105" vertex="1">
          <mxGeometry x="420" y="140" width="160" height="60" as="geometry" />
        </mxCell>
        <mxCell id="2Emxo1YxTL0GBM5rEkE9-116" value="" style="endArrow=none;html=1;rounded=0;" parent="2Emxo1YxTL0GBM5rEkE9-105" source="2Emxo1YxTL0GBM5rEkE9-108" target="2Emxo1YxTL0GBM5rEkE9-107" edge="1">
          <mxGeometry width="50" height="50" relative="1" as="geometry">
            <mxPoint x="460" y="247" as="sourcePoint" />
            <mxPoint x="510" y="197" as="targetPoint" />
          </mxGeometry>
        </mxCell>
        <mxCell id="2Emxo1YxTL0GBM5rEkE9-117" value="" style="endArrow=none;html=1;rounded=0;" parent="2Emxo1YxTL0GBM5rEkE9-105" source="2Emxo1YxTL0GBM5rEkE9-115" target="2Emxo1YxTL0GBM5rEkE9-114" edge="1">
          <mxGeometry width="50" height="50" relative="1" as="geometry">
            <mxPoint x="298" y="170" as="sourcePoint" />
            <mxPoint x="312" y="153" as="targetPoint" />
          </mxGeometry>
        </mxCell>
      </root>
    </mxGraphModel>
  </diagram>
</mxfile>
